# xmcd
#
# Track frame offsets: 
#        150
#        18861
#        26602
#        53744
#        64881
#        90252
#        105084
#        126020
#        136198
#        151141
#        172465
#
# Disc length: 2444 seconds
#
# Revision: 0
# Processed by: cddbd v1.5.2PL0 Copyright (c) Steve Scherf et al.
# Submitted via: ExactAudioCopyFreeDBPlugin 1.0
#
DISCID=7f098a0b
DTITLE=Dan Stuart - The Deliverance of Marlowe Billings
DYEAR=2012
DGENRE=Alt. Rock
TTITLE0=Can't Be Found
TTITLE1=Love So Rare
TTITLE2=Gonna Change
TTITLE3=Clean White Street
TTITLE4=Love Will Kill You
TTITLE5=What Are You Laughing About?
TTITLE6=Gringo Go Home
TTITLE7=Gap Toothed Girl
TTITLE8=What Can I Say?
TTITLE9=Searching Through The Pieces
TTITLE10=Cetina's Lament
EXTD=
EXTT0=
EXTT1=
EXTT2=
EXTT3=
EXTT4=
EXTT5=
EXTT6=
EXTT7=
EXTT8=
EXTT9=
EXTT10=
PLAYORDER=
